<svg height="3774" width="720" xmlns="http://www.w3.org/2000/svg">
<rect height="3774" fill="#555" width="720"></rect>
<text fill="#7f7" font-family="Courier New" font-size="12" xml:space="preserve">
<tspan x="10" y="26">2020-06-02 11:44:29 -0500</tspan>

<tspan x="10" y="42">[npm publish] - npm publish 2020.5.31</tspan>

<tspan x="10" y="58">- replace process.cwd() with path.resolve()</tspan>

<tspan x="10" y="74">- replace function fsReadFileOrEmptyStringSync with fsReadFileOrDefaultSync</tspan>

<tspan x="10" y="90">- remove dependency to file lib.swgg.js</tspan>

<tspan x="10" y="106">- istanbul - inline function templateRender</tspan>

<tspan x="10" y="122"></tspan>

<tspan x="10" y="138">2020-05-25 22:42:56 -0500</tspan>

<tspan x="10" y="154">[npm publish] - npm publish 2020.5.25</tspan>

<tspan x="10" y="170">- istanbul - rename __coverageCodeDict__ to __coverageInclude__</tspan>

<tspan x="10" y="186">- istanbul - inline function coverageReportCreate</tspan>

<tspan x="10" y="202">- remove excessive "the" from comments</tspan>

<tspan x="10" y="218">- update build</tspan>

<tspan x="10" y="234"></tspan>

<tspan x="10" y="250">2019-09-15 21:49:38 -0500</tspan>

<tspan x="10" y="266">[npm publish] - npm publish 2019.9.8</tspan>

<tspan x="10" y="282"></tspan>

<tspan x="10" y="298">2019-09-15 18:49:45 -0500</tspan>

<tspan x="10" y="314">- streamline evt-handling in example.js</tspan>

<tspan x="10" y="330">- migrate browser-testing from electron to headless-chromium</tspan>

<tspan x="10" y="346">- rename rm -fr to rm -rf</tspan>

<tspan x="10" y="362">- revamp function local.ajaxProgressUpdate with window.domOnEventAjaxProgressUpdate</tspan>

<tspan x="10" y="378">- istanbul - switch parser from esprima to acorn v6.3.0</tspan>

<tspan x="10" y="394"></tspan>

<tspan x="10" y="410">2019-08-13 01:32:42 -0500</tspan>

<tspan x="10" y="426">- istanbul - upgrade to escodegen v1.12.0</tspan>

<tspan x="10" y="442"></tspan>

<tspan x="10" y="458">2019-08-13 00:30:29 -0500</tspan>

<tspan x="10" y="474">- istanbul - upgrade to estools/lib/code.js v2.0.1</tspan>

<tspan x="10" y="490"></tspan>

<tspan x="10" y="506">2019-08-13 04:18:54 +0000</tspan>

<tspan x="10" y="522">- istanbul - upgrade to esprima v4.0.1</tspan>

<tspan x="10" y="538"></tspan>

<tspan x="10" y="554">2019-08-10 21:30:07 +0000</tspan>

<tspan x="10" y="570">[npm publish] - npm publish 2019.8.9</tspan>

<tspan x="10" y="586">- istanbul - add clickable id-fragment to lines in html-coverage</tspan>

<tspan x="10" y="602">- istanbul - enable es-module support</tspan>

<tspan x="10" y="618">- upgrade to estravers.js v4.2.0</tspan>

<tspan x="10" y="634"></tspan>

<tspan x="10" y="650">2018-09-10 19:20:08 +0700</tspan>

<tspan x="10" y="666">[npm publish] - npm publish 2018.9.10</tspan>

<tspan x="10" y="682">- revamp files with new jslint-lite</tspan>

<tspan x="10" y="698">- change footer-date to GMT</tspan>

<tspan x="10" y="714">- add BigInt-support for istanbul</tspan>

<tspan x="10" y="730"></tspan>

<tspan x="10" y="746">2018-08-08 22:24:03 +0700</tspan>

<tspan x="10" y="762">- add BigInt-support for istanbul</tspan>

<tspan x="10" y="778"></tspan>

<tspan x="10" y="794">2018-08-07 13:56:24 +0700</tspan>

<tspan x="10" y="810">[npm publish] - npm publish 2018.8.7</tspan>

<tspan x="10" y="826">- migrate from modeJs -&gt; isBrowser</tspan>

<tspan x="10" y="842">- embed script in html to limit select-all insde &lt;pre tabIndex="0"&gt; elements</tspan>

<tspan x="10" y="858"></tspan>

<tspan x="10" y="874">2018-04-25 23:49:51 +0800</tspan>

<tspan x="10" y="890">[npm publish] - npm publish v2018.4.25</tspan>

<tspan x="10" y="906">- update build</tspan>

<tspan x="10" y="922"></tspan>

<tspan x="10" y="938">2018-03-29 15:09:03 +0900</tspan>

<tspan x="10" y="954">[npm publish] - npm publish v2018.3.28</tspan>

<tspan x="10" y="970">- revamp css</tspan>

<tspan x="10" y="986"></tspan>

<tspan x="10" y="1002">2017-11-22 16:43:33 +0800</tspan>

<tspan x="10" y="1018">[npm publish] - npm publish 2017.11.21</tspan>

<tspan x="10" y="1034">- update build</tspan>

<tspan x="10" y="1050"></tspan>

<tspan x="10" y="1066">2017-10-05 15:59:13 +0800</tspan>

<tspan x="10" y="1082">[npm publish] - npm publish 2017.10.4</tspan>

<tspan x="10" y="1098">- add cli-help doc to README.md</tspan>

<tspan x="10" y="1114"></tspan>

<tspan x="10" y="1130">2017-09-04 17:56:03 +0800</tspan>

<tspan x="10" y="1146">[npm publish] - npm publish 2017.9.1</tspan>

<tspan x="10" y="1162">- add cli help command</tspan>

<tspan x="10" y="1178">- normalize local.fs module hook</tspan>

<tspan x="10" y="1194">- update README.md</tspan>

<tspan x="10" y="1210"></tspan>

<tspan x="10" y="1226">2017-05-28 17:54:04 +0800</tspan>

<tspan x="10" y="1242">[npm publish] - npm publish 2017.5.27</tspan>

<tspan x="10" y="1258">- deduplicate file assets.istanbul.rollup.js</tspan>

<tspan x="10" y="1274">- merge file lib.example.es6.js into test.js</tspan>

<tspan x="10" y="1290">- upgrade to esprima v2.7.3</tspan>

<tspan x="10" y="1306">- upgrade to escodegen v1.8.1</tspan>

<tspan x="10" y="1322">- upgrade to istanbul v0.4.5</tspan>

<tspan x="10" y="1338">- add README section 'all screenshots'</tspan>

<tspan x="10" y="1354">- add README section 'quickstart standalone app'</tspan>

<tspan x="10" y="1370">- auto-create README section 'table of contents'</tspan>

<tspan x="10" y="1386"></tspan>

<tspan x="10" y="1402">2017-04-14 14:13:59 +0800</tspan>

<tspan x="10" y="1418">[npm publish] - npm publish 2017.4.14</tspan>

<tspan x="10" y="1434">- remove build-function shBuildCiTestPre</tspan>

<tspan x="10" y="1450">- rename name api-doc -&gt; apidoc</tspan>

<tspan x="10" y="1466"></tspan>

<tspan x="10" y="1482">2017-03-01 17:41:54 +0800</tspan>

<tspan x="10" y="1498">- npm publish 2017.2.28</tspan>

<tspan x="10" y="1514">- replace env var npm_package_name with npm_package_nameAlias in istanbul code-coverage</tspan>

<tspan x="10" y="1530"></tspan>

<tspan x="10" y="1546">2017-02-19 01:52:31 +0800</tspan>

<tspan x="10" y="1562">- npm publish 2017.2.18</tspan>

<tspan x="10" y="1578">- add file assets.istanbul.rollup.js</tspan>

<tspan x="10" y="1594">- add heroku-postbuild npm-script</tspan>

<tspan x="10" y="1610">- do not auto-uglify js-assets in production</tspan>

<tspan x="10" y="1626">- revamp README.md</tspan>

<tspan x="10" y="1642"></tspan>

<tspan x="10" y="1658">2016-12-15 21:57:13 +0800</tspan>

<tspan x="10" y="1674">- npm publish 2016.12.2</tspan>

<tspan x="10" y="1690">- fix color regression bug in text-report</tspan>

<tspan x="10" y="1706"></tspan>

<tspan x="10" y="1722">2016-12-13 12:56:29 +0800</tspan>

<tspan x="10" y="1738">- npm publish 2016.12.1</tspan>

<tspan x="10" y="1754">- re-uglify lib.istanbul.js</tspan>

<tspan x="10" y="1770">- globalize local.codeDict to global.__coverageCodeDict__</tspan>

<tspan x="10" y="1786">- add in-file config-var /* istanbul ignore all */ to ignore the file</tspan>

<tspan x="10" y="1802">- rename file index.js -&gt; lib.istanbul.js</tspan>

<tspan x="10" y="1818"></tspan>

<tspan x="10" y="1834">2016-11-12 19:23:42 +0800</tspan>

<tspan x="10" y="1850">- npm publish 2016.10.3</tspan>

<tspan x="10" y="1866">- add env-variable npm_config_mode_coverage_append to allow appending coverage to previous repor\</tspan>
<tspan x="10" y="1882">ts</tspan>

<tspan x="10" y="1898">- change behavior of =all to cover all files</tspan>

<tspan x="10" y="1914">- none</tspan>

<tspan x="10" y="1930"></tspan>

<tspan x="10" y="1946">2016-11-07 23:54:22 +0800</tspan>

<tspan x="10" y="1962">- npm publish 2016.10.2</tspan>

<tspan x="10" y="1978">- add es6-syntax support and test</tspan>

<tspan x="10" y="1994"></tspan>

<tspan x="10" y="2010">2016-11-04 00:26:52 +0800</tspan>

<tspan x="10" y="2026">- npm publish 2016.10.1</tspan>

<tspan x="10" y="2042">- fix cli 'cover' command to auto-cover and create test-report, requiring only  env variable</tspan>

<tspan x="10" y="2058">- README.md - add cdn-download links</tspan>

<tspan x="10" y="2074">- README.md - replace alpha api-doc with beta api-doc</tspan>

<tspan x="10" y="2090"></tspan>

<tspan x="10" y="2106">2016-10-17 21:15:37 +0800</tspan>

<tspan x="10" y="2122">- npm publish 2016.7.3</tspan>

<tspan x="10" y="2138">- add 'hide internal test' button to demo</tspan>

<tspan x="10" y="2154"></tspan>

<tspan x="10" y="2170">2016-08-27 06:13:49 +0800</tspan>

<tspan x="10" y="2186">- npm publish 2015.7.2</tspan>

<tspan x="10" y="2202">- streamline build</tspan>

<tspan x="10" y="2218"></tspan>

<tspan x="10" y="2234">2016-08-10 01:46:47 +0200</tspan>

<tspan x="10" y="2250">- npm publish 2015.7.1</tspan>

<tspan x="10" y="2266">- update build</tspan>

<tspan x="10" y="2282">- display instrumented-code in web-ui</tspan>

<tspan x="10" y="2298"></tspan>

<tspan x="10" y="2314">2015-09-25 22:34:19 +0800</tspan>

<tspan x="10" y="2330">- npm publish 2015.9.1</tspan>

<tspan x="10" y="2346">- auto-embed sourceCode in coverage</tspan>

<tspan x="10" y="2362">- remove handlebars dependency</tspan>

<tspan x="10" y="2378">- based on istanbul@0.3.15 - https://github.com/gotwarlost/istanbul/compare/v0.3.15...master</tspan>

<tspan x="10" y="2394"></tspan>

<tspan x="10" y="2410">2015-09-16 21:47:12 +0800</tspan>

<tspan x="10" y="2426">fix pathHtml</tspan>

<tspan x="10" y="2442"></tspan>

<tspan x="10" y="2458">2015-09-16 02:12:05 +0800</tspan>

<tspan x="10" y="2474">cull handlebars</tspan>

<tspan x="10" y="2490"></tspan>

<tspan x="10" y="2506">2015-09-05 02:35:22 +0800</tspan>

<tspan x="10" y="2522">- npm publish 2015.8.2</tspan>

<tspan x="10" y="2538">- update README.md</tspan>

<tspan x="10" y="2554"></tspan>

<tspan x="10" y="2570">2015-08-20 16:34:26 +0800</tspan>

<tspan x="10" y="2586">- npm publish 2015.8.1</tspan>

<tspan x="10" y="2602">- add api documentation</tspan>

<tspan x="10" y="2618">- update dependencies</tspan>

<tspan x="10" y="2634"></tspan>

<tspan x="10" y="2650">2015-07-31 16:40:34 +0800</tspan>

<tspan x="10" y="2666">- npm publish 2015.6.2</tspan>

<tspan x="10" y="2682">- update README.md</tspan>

<tspan x="10" y="2698">- update dependencies</tspan>

<tspan x="10" y="2714"></tspan>

<tspan x="10" y="2730">2015-06-24 22:03:12 +0800</tspan>

<tspan x="10" y="2746">- npm publish 2015.6.1</tspan>

<tspan x="10" y="2762">- fix version breakage with latest npm install</tspan>

<tspan x="10" y="2778"></tspan>

<tspan x="10" y="2794">2015-06-20 18:58:58 +0800</tspan>

<tspan x="10" y="2810">- npm publish 0.3.15-20150620c</tspan>

<tspan x="10" y="2826">- fix middlewareAssetsCached</tspan>

<tspan x="10" y="2842"></tspan>

<tspan x="10" y="2858">2015-06-20 14:01:59 +0800</tspan>

<tspan x="10" y="2874">- npm publish 0.3.15-20150620b</tspan>

<tspan x="10" y="2890">- update istanbul to 0.3.15</tspan>

<tspan x="10" y="2906">- use minified handlebars v1.2.1 to reduce package size</tspan>

<tspan x="10" y="2922"></tspan>

<tspan x="10" y="2938">2015-06-09 15:37:46 +0800</tspan>

<tspan x="10" y="2954">- npm publish 0.3.14-2015.6.1-a</tspan>

<tspan x="10" y="2970">- sync versioning with istanbul</tspan>

<tspan x="10" y="2986">- update README.md with syntax-highlighted code-blocks</tspan>

<tspan x="10" y="3002">- rename onTaskEnd to onParallel</tspan>

<tspan x="10" y="3018"></tspan>

<tspan x="10" y="3034">2015-05-28 11:41:13 +0800</tspan>

<tspan x="10" y="3050">- npm publish 2015.5.28-a</tspan>

<tspan x="10" y="3066">- remove "instanceof Error" check for error validation tests</tspan>

<tspan x="10" y="3082">- require explicit creation of deferred task utility2.onReady</tspan>

<tspan x="10" y="3098"></tspan>

<tspan x="10" y="3114">2015-05-07 03:25:47 +0800</tspan>

<tspan x="10" y="3130">- npm publish 2015.5.6-a</tspan>

<tspan x="10" y="3146">- rename mainRun to cliRun</tspan>

<tspan x="10" y="3162"></tspan>

<tspan x="10" y="3178">2015-04-26 22:02:12 +0800</tspan>

<tspan x="10" y="3194">- npm publish 2015.4.26-c</tspan>

<tspan x="10" y="3210">- transpose build-status table</tspan>

<tspan x="10" y="3226">- fix w3.org validation for main-page</tspan>

<tspan x="10" y="3242"></tspan>

<tspan x="10" y="3258">2015-04-26 15:14:31 +0800</tspan>

<tspan x="10" y="3274"># change since 5ecada55</tspan>

<tspan x="10" y="3290">- npm publish 2015.4.26-b</tspan>

<tspan x="10" y="3306">- fix stale screen-capture in README.md</tspan>

<tspan x="10" y="3322">- fix "npm test --mode-no-coverage"</tspan>

<tspan x="10" y="3338">- none</tspan>

<tspan x="10" y="3354"></tspan>

<tspan x="10" y="3370">2015-04-25 01:14:59 +0800</tspan>

<tspan x="10" y="3386">- npm publish 2015.4.24-a</tspan>

<tspan x="10" y="3402">- fix potential infinite recursion in local.writeFileSync</tspan>

<tspan x="10" y="3418">- hide {{envDict.npm_config_html_head_extra}}</tspan>

<tspan x="10" y="3434"></tspan>

<tspan x="10" y="3450">2015-04-09 17:43:51 +0800</tspan>

<tspan x="10" y="3466">npm publish 2015.4.9-a</tspan>

<tspan x="10" y="3482"></tspan>

<tspan x="10" y="3498">2015-04-02 17:41:59 +0800</tspan>

<tspan x="10" y="3514">fix multi-build</tspan>

<tspan x="10" y="3530"></tspan>

<tspan x="10" y="3546">2015-04-02 17:27:13 +0800</tspan>

<tspan x="10" y="3562">npm publish 2015.4.2-11</tspan>

<tspan x="10" y="3578"></tspan>

<tspan x="10" y="3594">2015-04-02 17:18:16 +0800</tspan>

<tspan x="10" y="3610">add node v0.10 build matrix</tspan>

<tspan x="10" y="3626"></tspan>

<tspan x="10" y="3642">2015-04-02 11:05:12 +0800</tspan>

<tspan x="10" y="3658">npm publish 2015.4.2-10</tspan>

<tspan x="10" y="3674"></tspan>

<tspan x="10" y="3690">2015-04-01 21:56:03 +0800</tspan>

<tspan x="10" y="3706">fix build</tspan>

<tspan x="10" y="3722"></tspan>

<tspan x="10" y="3738">2015-04-01 21:49:54 +0800</tspan>

<tspan x="10" y="3754">remove phantomjs-lite dependency</tspan>

</text>
</svg>
