<svg height="7390" width="720" xmlns="http://www.w3.org/2000/svg">
<rect height="7390" fill="#555" width="720"></rect>
<text fill="#7f7" font-family="Courier New" font-size="12" xml:space="preserve">
<tspan x="10" y="26"></tspan>

<tspan x="10" y="42">\x1b[35m[MODE_BUILD=npmTestPublished]\x1b[0m - 2020-06-11T14:32:09.097Z - npm-testing /tmp/npmTe\</tspan>
<tspan x="10" y="58">stPublished/node_modules/istanbul-lite</tspan>

<tspan x="10" y="74"></tspan>

<tspan x="10" y="90"></tspan>

<tspan x="10" y="106">istanbul - covering $ /home/travis/.nvm/versions/node/v14.4.0/bin/node /tmp/npmTestPublished/nod\</tspan>
<tspan x="10" y="122">e_modules/istanbul-lite/test.js</tspan>

<tspan x="10" y="138">&gt; jslint - 6ms - /tmp/npmTestPublished/node_modules/istanbul-lite/npm_scripts.sh</tspan>

<tspan x="10" y="154">--- /tmp/npmTestPublished/node_modules/istanbul-lite/package.json.autofix.old	2020-06-11 14:32:0\</tspan>
<tspan x="10" y="170">9.564030318 +0000</tspan>

<tspan x="10" y="186">+++ /tmp/npmTestPublished/node_modules/istanbul-lite/package.json	2020-06-11 14:32:09.564030318 \</tspan>
<tspan x="10" y="202">+0000</tspan>

<tspan x="10" y="218">@@ -1,76 +1,76 @@</tspan>

<tspan x="10" y="234"> {</tspan>

<tspan x="10" y="250">-  "_from": "istanbul-lite",</tspan>

<tspan x="10" y="266">-  "_id": "istanbul-lite@2020.6.8",</tspan>

<tspan x="10" y="282">-  "_inBundle": false,</tspan>

<tspan x="10" y="298">-  "_integrity": "sha512-04BZcWsHR5KNb62VGJ/RGo+H1aStSCtYvJoL2UKUI4K/ZdnidjiX1ZCEGRo6DeWSIDlP3ss\</tspan>
<tspan x="10" y="314">SbYfU2mXg7epCTw==",</tspan>

<tspan x="10" y="330">-  "_location": "/istanbul-lite",</tspan>

<tspan x="10" y="346">-  "_phantomChildren": {},</tspan>

<tspan x="10" y="362">-  "_requested": {</tspan>

<tspan x="10" y="378">-    "type": "tag",</tspan>

<tspan x="10" y="394">-    "registry": true,</tspan>

<tspan x="10" y="410">-    "raw": "istanbul-lite",</tspan>

<tspan x="10" y="426">+    "_from": "istanbul-lite",</tspan>

<tspan x="10" y="442">+    "_id": "istanbul-lite@2020.6.8",</tspan>

<tspan x="10" y="458">+    "_inBundle": false,</tspan>

<tspan x="10" y="474">+    "_integrity": "sha512-04BZcWsHR5KNb62VGJ/RGo+H1aStSCtYvJoL2UKUI4K/ZdnidjiX1ZCEGRo6DeWSIDlP3\</tspan>
<tspan x="10" y="490">ssSbYfU2mXg7epCTw==",</tspan>

<tspan x="10" y="506">+    "_location": "/istanbul-lite",</tspan>

<tspan x="10" y="522">+    "_phantomChildren": {},</tspan>

<tspan x="10" y="538">+    "_requested": {</tspan>

<tspan x="10" y="554">+        "escapedName": "istanbul-lite",</tspan>

<tspan x="10" y="570">+        "fetchSpec": "latest",</tspan>

<tspan x="10" y="586">+        "name": "istanbul-lite",</tspan>

<tspan x="10" y="602">+        "raw": "istanbul-lite",</tspan>

<tspan x="10" y="618">+        "rawSpec": "",</tspan>

<tspan x="10" y="634">+        "registry": true,</tspan>

<tspan x="10" y="650">+        "saveSpec": null,</tspan>

<tspan x="10" y="666">+        "type": "tag"</tspan>

<tspan x="10" y="682">+    },</tspan>

<tspan x="10" y="698">+    "_requiredBy_": [</tspan>

<tspan x="10" y="714">+        "#USER",</tspan>

<tspan x="10" y="730">+        "/"</tspan>

<tspan x="10" y="746">+    ],</tspan>

<tspan x="10" y="762">+    "_resolved": "https://registry.npmjs.org/istanbul-lite/-/istanbul-lite-2020.6.8.tgz",</tspan>

<tspan x="10" y="778">+    "_shasum": "90c82063c8d38e13084a7c29fa0fae3af2b12005",</tspan>

<tspan x="10" y="794">+    "_spec": "istanbul-lite",</tspan>

<tspan x="10" y="810">+    "_where": "/tmp/npmTestPublished",</tspan>

<tspan x="10" y="826">+    "author": {</tspan>

<tspan x="10" y="842">+        "email": "kaizhu256@gmail.com",</tspan>

<tspan x="10" y="858">+        "name": "kai zhu"</tspan>

<tspan x="10" y="874">+    },</tspan>

<tspan x="10" y="890">+    "bin": {</tspan>

<tspan x="10" y="906">+        "istanbul-lite": "lib.istanbul.js"</tspan>

<tspan x="10" y="922">+    },</tspan>

<tspan x="10" y="938">+    "bugs": {</tspan>

<tspan x="10" y="954">+        "url": "https://github.com/kaizhu256/node-istanbul-lite/issues"</tspan>

<tspan x="10" y="970">+    },</tspan>

<tspan x="10" y="986">+    "bundleDependencies": false,</tspan>

<tspan x="10" y="1002">+    "deprecated": false,</tspan>

<tspan x="10" y="1018">+    "description": "this zero-dependency package will provide browser-compatible version of ist\</tspan>
<tspan x="10" y="1034">anbul coverage-tool (v0.4.5), with working web-demo",</tspan>

<tspan x="10" y="1050">+    "devDependencies": {</tspan>

<tspan x="10" y="1066">+        "utility2": "github:kaizhu256/node-utility2#alpha"</tspan>

<tspan x="10" y="1082">+    },</tspan>

<tspan x="10" y="1098">+    "engines": {</tspan>

<tspan x="10" y="1114">+        "node": "&gt;=12.0"</tspan>

<tspan x="10" y="1130">+    },</tspan>

<tspan x="10" y="1146">+    "fileCount": 8,</tspan>

<tspan x="10" y="1162">+    "homepage": "https://github.com/kaizhu256/node-istanbul-lite",</tspan>

<tspan x="10" y="1178">+    "keywords": [</tspan>

<tspan x="10" y="1194">+        "coverage",</tspan>

<tspan x="10" y="1210">+        "istanbul"</tspan>

<tspan x="10" y="1226">+    ],</tspan>

<tspan x="10" y="1242">+    "license": "MIT",</tspan>

<tspan x="10" y="1258">+    "main": "lib.istanbul.js",</tspan>

<tspan x="10" y="1274">     "name": "istanbul-lite",</tspan>

<tspan x="10" y="1290">-    "escapedName": "istanbul-lite",</tspan>

<tspan x="10" y="1306">-    "rawSpec": "",</tspan>

<tspan x="10" y="1322">-    "saveSpec": null,</tspan>

<tspan x="10" y="1338">-    "fetchSpec": "latest"</tspan>

<tspan x="10" y="1354">-  },</tspan>

<tspan x="10" y="1370">-  "_requiredBy_": [</tspan>

<tspan x="10" y="1386">-    "#USER",</tspan>

<tspan x="10" y="1402">-    "/"</tspan>

<tspan x="10" y="1418">-  ],</tspan>

<tspan x="10" y="1434">-  "_resolved": "https://registry.npmjs.org/istanbul-lite/-/istanbul-lite-2020.6.8.tgz",</tspan>

<tspan x="10" y="1450">-  "_shasum": "90c82063c8d38e13084a7c29fa0fae3af2b12005",</tspan>

<tspan x="10" y="1466">-  "_spec": "istanbul-lite",</tspan>

<tspan x="10" y="1482">-  "_where": "/tmp/npmTestPublished",</tspan>

<tspan x="10" y="1498">-  "author": {</tspan>

<tspan x="10" y="1514">-    "name": "kai zhu",</tspan>

<tspan x="10" y="1530">-    "email": "kaizhu256@gmail.com"</tspan>

<tspan x="10" y="1546">-  },</tspan>

<tspan x="10" y="1562">-  "bin": {</tspan>

<tspan x="10" y="1578">-    "istanbul-lite": "lib.istanbul.js"</tspan>

<tspan x="10" y="1594">-  },</tspan>

<tspan x="10" y="1610">-  "bugs": {</tspan>

<tspan x="10" y="1626">-    "url": "https://github.com/kaizhu256/node-istanbul-lite/issues"</tspan>

<tspan x="10" y="1642">-  },</tspan>

<tspan x="10" y="1658">-  "bundleDependencies": false,</tspan>

<tspan x="10" y="1674">-  "deprecated": false,</tspan>

<tspan x="10" y="1690">-  "description": "this zero-dependency package will provide browser-compatible version of istan\</tspan>
<tspan x="10" y="1706">bul coverage-tool (v0.4.5), with working web-demo",</tspan>

<tspan x="10" y="1722">-  "devDependencies": {</tspan>

<tspan x="10" y="1738">-    "utility2": "github:kaizhu256/node-utility2#alpha"</tspan>

<tspan x="10" y="1754">-  },</tspan>

<tspan x="10" y="1770">-  "engines": {</tspan>

<tspan x="10" y="1786">-    "node": "&gt;=12.0"</tspan>

<tspan x="10" y="1802">-  },</tspan>

<tspan x="10" y="1818">-  "fileCount": 8,</tspan>

<tspan x="10" y="1834">-  "homepage": "https://github.com/kaizhu256/node-istanbul-lite",</tspan>

<tspan x="10" y="1850">-  "keywords": [</tspan>

<tspan x="10" y="1866">-    "coverage",</tspan>

<tspan x="10" y="1882">-    "istanbul"</tspan>

<tspan x="10" y="1898">-  ],</tspan>

<tspan x="10" y="1914">-  "license": "MIT",</tspan>

<tspan x="10" y="1930">-  "main": "lib.istanbul.js",</tspan>

<tspan x="10" y="1946">-  "name": "istanbul-lite",</tspan>

<tspan x="10" y="1962">-  "nameAliasPublish": "",</tspan>

<tspan x="10" y="1978">-  "nameLib": "istanbul",</tspan>

<tspan x="10" y="1994">-  "nameOriginal": "istanbul-lite",</tspan>

<tspan x="10" y="2010">-  "os": [</tspan>

<tspan x="10" y="2026">-    "darwin",</tspan>

<tspan x="10" y="2042">-    "linux"</tspan>

<tspan x="10" y="2058">-  ],</tspan>

<tspan x="10" y="2074">-  "repository": {</tspan>

<tspan x="10" y="2090">-    "type": "git",</tspan>

<tspan x="10" y="2106">-    "url": "git+https://github.com/kaizhu256/node-istanbul-lite.git"</tspan>

<tspan x="10" y="2122">-  },</tspan>

<tspan x="10" y="2138">-  "scripts": {</tspan>

<tspan x="10" y="2154">-    "build-ci": "./npm_scripts.sh",</tspan>

<tspan x="10" y="2170">-    "env": "env",</tspan>

<tspan x="10" y="2186">-    "eval": "./npm_scripts.sh",</tspan>

<tspan x="10" y="2202">-    "heroku-postbuild": "./npm_scripts.sh",</tspan>

<tspan x="10" y="2218">-    "postinstall": "./npm_scripts.sh",</tspan>

<tspan x="10" y="2234">-    "start": "./npm_scripts.sh",</tspan>

<tspan x="10" y="2250">-    "test": "./npm_scripts.sh",</tspan>

<tspan x="10" y="2266">-    "utility2": "./npm_scripts.sh"</tspan>

<tspan x="10" y="2282">-  },</tspan>

<tspan x="10" y="2298">-  "version": "2020.6.8"</tspan>

<tspan x="10" y="2314">+    "nameAliasPublish": "",</tspan>

<tspan x="10" y="2330">+    "nameLib": "istanbul",</tspan>

<tspan x="10" y="2346">+    "nameOriginal": "istanbul-lite",</tspan>

<tspan x="10" y="2362">+    "os": [</tspan>

<tspan x="10" y="2378">+        "darwin",</tspan>

<tspan x="10" y="2394">+        "linux"</tspan>

<tspan x="10" y="2410">+    ],</tspan>

<tspan x="10" y="2426">+    "repository": {</tspan>

<tspan x="10" y="2442">+        "type": "git",</tspan>

<tspan x="10" y="2458">+        "url": "git+https://github.com/kaizhu256/node-istanbul-lite.git"</tspan>

<tspan x="10" y="2474">+    },</tspan>

<tspan x="10" y="2490">+    "scripts": {</tspan>

<tspan x="10" y="2506">+        "build-ci": "./npm_scripts.sh",</tspan>

<tspan x="10" y="2522">+        "env": "env",</tspan>

<tspan x="10" y="2538">+        "eval": "./npm_scripts.sh",</tspan>

<tspan x="10" y="2554">+        "heroku-postbuild": "./npm_scripts.sh",</tspan>

<tspan x="10" y="2570">+        "postinstall": "./npm_scripts.sh",</tspan>

<tspan x="10" y="2586">+        "start": "./npm_scripts.sh",</tspan>

<tspan x="10" y="2602">+        "test": "./npm_scripts.sh",</tspan>

<tspan x="10" y="2618">+        "utility2": "./npm_scripts.sh"</tspan>

<tspan x="10" y="2634">+    },</tspan>

<tspan x="10" y="2650">+    "version": "2020.6.8"</tspan>

<tspan x="10" y="2666"> }</tspan>

<tspan x="10" y="2682">jslint-autofix - modified and saved file /tmp/npmTestPublished/node_modules/istanbul-lite/packag\</tspan>
<tspan x="10" y="2698">e.json</tspan>

<tspan x="10" y="2714">jslint - 28ms - /tmp/npmTestPublished/node_modules/istanbul-lite/package.json</tspan>

<tspan x="10" y="2730">--- /tmp/npmTestPublished/node_modules/istanbul-lite/test.js.autofix.old	2020-06-11 14:32:09.680\</tspan>
<tspan x="10" y="2746">030318 +0000</tspan>

<tspan x="10" y="2762">+++ /tmp/npmTestPublished/node_modules/istanbul-lite/test.js	2020-06-11 14:32:09.680030318 +0000</tspan>

<tspan x="10" y="2778">@@ -3,12 +3,10 @@</tspan>

<tspan x="10" y="2794"> /* jslint utility2:true */</tspan>

<tspan x="10" y="2810"> /* istanbul ignore next */</tspan>

<tspan x="10" y="2826"> // run shared js-env code - init-local</tspan>

<tspan x="10" y="2842">-(function (globalThis) {</tspan>

<tspan x="10" y="2858">+(function () {</tspan>

<tspan x="10" y="2874">     "use strict";</tspan>

<tspan x="10" y="2890">     let consoleError;</tspan>

<tspan x="10" y="2906">     let local;</tspan>

<tspan x="10" y="2922">-    // init globalThis</tspan>

<tspan x="10" y="2938">-    globalThis.globalThis = globalThis.globalThis || globalThis;</tspan>

<tspan x="10" y="2954">     // init debugInline</tspan>

<tspan x="10" y="2970">     if (!globalThis.debugInline) {</tspan>

<tspan x="10" y="2986">         consoleError = console.error;</tspan>

<tspan x="10" y="3002">@@ -159,7 +157,7 @@</tspan>

<tspan x="10" y="3018">             throw err;</tspan>

<tspan x="10" y="3034">         });</tspan>

<tspan x="10" y="3050">     }</tspan>

<tspan x="10" y="3066">-}((typeof globalThis === "object" &amp;&amp; globalThis) || window));</tspan>

<tspan x="10" y="3082">+}());</tspan>

<tspan x="10" y="3098"> // assets.utility2.header.js - end</tspan>

<tspan x="10" y="3114"> </tspan>

<tspan x="10" y="3130"> </tspan>

<tspan x="10" y="3146">jslint-autofix - modified and saved file /tmp/npmTestPublished/node_modules/istanbul-lite/test.j\</tspan>
<tspan x="10" y="3162">s</tspan>

<tspan x="10" y="3178">jslint - 150ms - /tmp/npmTestPublished/node_modules/istanbul-lite/test.js</tspan>

<tspan x="10" y="3194">--- /tmp/npmTestPublished/node_modules/istanbul-lite/README.md.autofix.old	2020-06-11 14:32:10.0\</tspan>
<tspan x="10" y="3210">08030318 +0000</tspan>

<tspan x="10" y="3226">+++ /tmp/npmTestPublished/node_modules/istanbul-lite/README.md	2020-06-11 14:32:10.008030318 +00\</tspan>
<tspan x="10" y="3242">00</tspan>

<tspan x="10" y="3258">@@ -126,12 +126,10 @@</tspan>

<tspan x="10" y="3274"> /* jslint utility2:true */</tspan>

<tspan x="10" y="3290"> /* istanbul ignore next */</tspan>

<tspan x="10" y="3306"> // run shared js-env code - init-local</tspan>

<tspan x="10" y="3322">-(function (globalThis) {</tspan>

<tspan x="10" y="3338">+(function () {</tspan>

<tspan x="10" y="3354">     "use strict";</tspan>

<tspan x="10" y="3370">     let consoleError;</tspan>

<tspan x="10" y="3386">     let local;</tspan>

<tspan x="10" y="3402">-    // init globalThis</tspan>

<tspan x="10" y="3418">-    globalThis.globalThis = globalThis.globalThis || globalThis;</tspan>

<tspan x="10" y="3434">     // init debugInline</tspan>

<tspan x="10" y="3450">     if (!globalThis.debugInline) {</tspan>

<tspan x="10" y="3466">         consoleError = console.error;</tspan>

<tspan x="10" y="3482">@@ -282,7 +280,7 @@</tspan>

<tspan x="10" y="3498">             throw err;</tspan>

<tspan x="10" y="3514">         });</tspan>

<tspan x="10" y="3530">     }</tspan>

<tspan x="10" y="3546">-}((typeof globalThis === "object" &amp;&amp; globalThis) || window));</tspan>

<tspan x="10" y="3562">+}());</tspan>

<tspan x="10" y="3578"> // assets.utility2.header.js - end</tspan>

<tspan x="10" y="3594"> </tspan>

<tspan x="10" y="3610"> </tspan>

<tspan x="10" y="3626">jslint-autofix - modified and saved file /tmp/npmTestPublished/node_modules/istanbul-lite/README\</tspan>
<tspan x="10" y="3642">.md</tspan>

<tspan x="10" y="3658">jslint - 489ms - /tmp/npmTestPublished/node_modules/istanbul-lite/README.md</tspan>

<tspan x="10" y="3674">--- /tmp/npmTestPublished/node_modules/istanbul-lite/lib.istanbul.js.autofix.old	2020-06-11 14:3\</tspan>
<tspan x="10" y="3690">2:10.596030318 +0000</tspan>

<tspan x="10" y="3706">+++ /tmp/npmTestPublished/node_modules/istanbul-lite/lib.istanbul.js	2020-06-11 14:32:10.5920303\</tspan>
<tspan x="10" y="3722">18 +0000</tspan>

<tspan x="10" y="3738">@@ -13,12 +13,10 @@</tspan>

<tspan x="10" y="3754"> /* jslint utility2:true */</tspan>

<tspan x="10" y="3770"> /* istanbul ignore next */</tspan>

<tspan x="10" y="3786"> // run shared js-env code - init-local</tspan>

<tspan x="10" y="3802">-(function (globalThis) {</tspan>

<tspan x="10" y="3818">+(function () {</tspan>

<tspan x="10" y="3834">     "use strict";</tspan>

<tspan x="10" y="3850">     let consoleError;</tspan>

<tspan x="10" y="3866">     let local;</tspan>

<tspan x="10" y="3882">-    // init globalThis</tspan>

<tspan x="10" y="3898">-    globalThis.globalThis = globalThis.globalThis || globalThis;</tspan>

<tspan x="10" y="3914">     // init debugInline</tspan>

<tspan x="10" y="3930">     if (!globalThis.debugInline) {</tspan>

<tspan x="10" y="3946">         consoleError = console.error;</tspan>

<tspan x="10" y="3962">@@ -169,7 +167,7 @@</tspan>

<tspan x="10" y="3978">             throw err;</tspan>

<tspan x="10" y="3994">         });</tspan>

<tspan x="10" y="4010">     }</tspan>

<tspan x="10" y="4026">-}((typeof globalThis === "object" &amp;&amp; globalThis) || window));</tspan>

<tspan x="10" y="4042">+}());</tspan>

<tspan x="10" y="4058"> // assets.utility2.header.js - end</tspan>

<tspan x="10" y="4074"> </tspan>

<tspan x="10" y="4090"> </tspan>

<tspan x="10" y="4106">jslint-autofix - modified and saved file /tmp/npmTestPublished/node_modules/istanbul-lite/lib.is\</tspan>
<tspan x="10" y="4122">tanbul.js</tspan>

<tspan x="10" y="4138">jslint - 1073ms - /tmp/npmTestPublished/node_modules/istanbul-lite/lib.istanbul.js</tspan>

<tspan x="10" y="4154">http-server listening on port 34320</tspan>

<tspan x="10" y="4170">testRunDefault - 73 ms - [node test-case 1 of 12 passed] - testCase_buildLib_default</tspan>

<tspan x="10" y="4186">testRunDefault - 77 ms - [node test-case 2 of 12 passed] - testCase_buildReadme_default</tspan>

<tspan x="10" y="4202">testRunDefault - 81 ms - [node test-case 3 of 12 passed] - testCase_buildTest_default</tspan>

<tspan x="10" y="4218">Bob knows John</tspan>

<tspan x="10" y="4234">5</tspan>

<tspan x="10" y="4250">1</tspan>

<tspan x="10" y="4266">2</tspan>

<tspan x="10" y="4282">3</tspan>

<tspan x="10" y="4298">5</tspan>

<tspan x="10" y="4314">8</tspan>

<tspan x="10" y="4330">13</tspan>

<tspan x="10" y="4346">21</tspan>

<tspan x="10" y="4362">34</tspan>

<tspan x="10" y="4378">55</tspan>

<tspan x="10" y="4394">89</tspan>

<tspan x="10" y="4410">144</tspan>

<tspan x="10" y="4426">233</tspan>

<tspan x="10" y="4442">377</tspan>

<tspan x="10" y="4458">610</tspan>

<tspan x="10" y="4474">987</tspan>

<tspan x="10" y="4490">1</tspan>

<tspan x="10" y="4506">2</tspan>

<tspan x="10" y="4522">3</tspan>

<tspan x="10" y="4538">5</tspan>

<tspan x="10" y="4554">8</tspan>

<tspan x="10" y="4570">13</tspan>

<tspan x="10" y="4586">21</tspan>

<tspan x="10" y="4602">34</tspan>

<tspan x="10" y="4618">55</tspan>

<tspan x="10" y="4634">89</tspan>

<tspan x="10" y="4650">144</tspan>

<tspan x="10" y="4666">233</tspan>

<tspan x="10" y="4682">377</tspan>

<tspan x="10" y="4698">610</tspan>

<tspan x="10" y="4714">987</tspan>

<tspan x="10" y="4730">𠮷</tspan>

<tspan x="10" y="4746">Assertion failed: undefined</tspan>

<tspan x="10" y="4762">testRunDefault - 89 ms - [node test-case 4 of 12 passed] - testCase_coverage_es6</tspan>

<tspan x="10" y="4778">testRunDefault - 108 ms - [node test-case 5 of 12 passed] - testCase_istanbulCoverageMerge_defau\</tspan>
<tspan x="10" y="4794">lt</tspan>

<tspan x="10" y="4810">testRunDefault - 1234 ms - [node test-case 6 of 12 passed] - testCase_istanbulCoverageReportCrea\</tspan>
<tspan x="10" y="4826">te_default</tspan>

<tspan x="10" y="4842">testRunDefault - 1237 ms - [node test-case 7 of 12 passed] - testCase_istanbulInstrumentInPackag\</tspan>
<tspan x="10" y="4858">e_default</tspan>

<tspan x="10" y="4874">testRunDefault - 1239 ms - [node test-case 8 of 12 passed] - testCase_istanbulInstrumentSync_def\</tspan>
<tspan x="10" y="4890">ault</tspan>

<tspan x="10" y="4906">testRunDefault - 1239 ms - [node test-case 9 of 12 passed] - testCase_nop_default</tspan>

<tspan x="10" y="4922">testRunDefault - 1416 ms - [node test-case 10 of 12 passed] - testCase_buildApidoc_default</tspan>

<tspan x="10" y="4938"></tspan>

<tspan x="10" y="4954">DevTools listening on ws://127.0.0.1:42819/devtools/browser/6d17569a-387e-4a08-a441-726cbb64ce8d</tspan>

<tspan x="10" y="4970">&gt; http-server listening on port 57112</tspan>

<tspan x="10" y="4986">[0611/143214.337879:INFO:CONSOLE(8)] "hello", source: http://127.0.0.1:34320/assets.example.js (\</tspan>
<tspan x="10" y="5002">8)</tspan>

<tspan x="10" y="5018">[0611/143214.344443:INFO:CONSOLE(8)] "1", source: http://127.0.0.1:34320/assets.example.js (8)</tspan>

<tspan x="10" y="5034">[0611/143214.345293:INFO:CONSOLE(8)] "2", source: http://127.0.0.1:34320/assets.example.js (8)</tspan>

<tspan x="10" y="5050">[0611/143214.346539:INFO:CONSOLE(8)] "3", source: http://127.0.0.1:34320/assets.example.js (8)</tspan>

<tspan x="10" y="5066">[0611/143214.347625:INFO:CONSOLE(8)] "5", source: http://127.0.0.1:34320/assets.example.js (8)</tspan>

<tspan x="10" y="5082">[0611/143214.348953:INFO:CONSOLE(8)] "8", source: http://127.0.0.1:34320/assets.example.js (8)</tspan>

<tspan x="10" y="5098">[0611/143214.350052:INFO:CONSOLE(8)] "13", source: http://127.0.0.1:34320/assets.example.js (8)</tspan>

<tspan x="10" y="5114">[0611/143214.351217:INFO:CONSOLE(8)] "21", source: http://127.0.0.1:34320/assets.example.js (8)</tspan>

<tspan x="10" y="5130">[0611/143214.352415:INFO:CONSOLE(8)] "34", source: http://127.0.0.1:34320/assets.example.js (8)</tspan>

<tspan x="10" y="5146">[0611/143214.353507:INFO:CONSOLE(8)] "55", source: http://127.0.0.1:34320/assets.example.js (8)</tspan>

<tspan x="10" y="5162">[0611/143214.354578:INFO:CONSOLE(8)] "89", source: http://127.0.0.1:34320/assets.example.js (8)</tspan>

<tspan x="10" y="5178">[0611/143214.355701:INFO:CONSOLE(8)] "144", source: http://127.0.0.1:34320/assets.example.js (8)</tspan>

<tspan x="10" y="5194">[0611/143214.356891:INFO:CONSOLE(8)] "233", source: http://127.0.0.1:34320/assets.example.js (8)</tspan>

<tspan x="10" y="5210">[0611/143214.357975:INFO:CONSOLE(8)] "377", source: http://127.0.0.1:34320/assets.example.js (8)</tspan>

<tspan x="10" y="5226">[0611/143214.359045:INFO:CONSOLE(8)] "610", source: http://127.0.0.1:34320/assets.example.js (8)</tspan>

<tspan x="10" y="5242">[0611/143214.360151:INFO:CONSOLE(8)] "987", source: http://127.0.0.1:34320/assets.example.js (8)</tspan>

<tspan x="10" y="5258">[0611/143214.370987:INFO:CONSOLE(8)] "--------------------|---------|---------|---------|-------\</tspan>
<tspan x="10" y="5274">--|</tspan>

<tspan x="10" y="5290">File                | % Stmts | % Brchs | % Funcs | % Lines |</tspan>

<tspan x="10" y="5306">--------------------|---------|---------|---------|---------|</tspan>

<tspan x="10" y="5322">All files           |   91.67 |      75 |     100 |   91.67 |</tspan>

<tspan x="10" y="5338">All files           |   91.67 |      75 |     100 |   91.67 |</tspan>

<tspan x="10" y="5354">  inputTextarea1.js |   91.67 |      75 |     100 |   91.67 |</tspan>

<tspan x="10" y="5370">--------------------|---------|---------|---------|---------|</tspan>

<tspan x="10" y="5386">", source: http://127.0.0.1:34320/assets.example.js (8)</tspan>

<tspan x="10" y="5402">[0611/143214.422296:INFO:CONSOLE(8)] "istanbul - created coverage file tmp/build/coverage.html/i\</tspan>
<tspan x="10" y="5418">ndex.html", source: http://127.0.0.1:34320/assets.example.js (8)</tspan>

<tspan x="10" y="5434">[0611/143214.461701:INFO:CONSOLE(8)] "Bob knows John", source: http://127.0.0.1:34320/assets.exa\</tspan>
<tspan x="10" y="5450">mple.js (8)</tspan>

<tspan x="10" y="5466">[0611/143214.468663:INFO:CONSOLE(8)] "5", source: http://127.0.0.1:34320/assets.example.js (8)</tspan>

<tspan x="10" y="5482">[0611/143214.471396:INFO:CONSOLE(8)] "1", source: http://127.0.0.1:34320/assets.example.js (8)</tspan>

<tspan x="10" y="5498">[0611/143214.472942:INFO:CONSOLE(8)] "2", source: http://127.0.0.1:34320/assets.example.js (8)</tspan>

<tspan x="10" y="5514">[0611/143214.474712:INFO:CONSOLE(8)] "3", source: http://127.0.0.1:34320/assets.example.js (8)</tspan>

<tspan x="10" y="5530">[0611/143214.476437:INFO:CONSOLE(8)] "5", source: http://127.0.0.1:34320/assets.example.js (8)</tspan>

<tspan x="10" y="5546">[0611/143214.478232:INFO:CONSOLE(8)] "8", source: http://127.0.0.1:34320/assets.example.js (8)</tspan>

<tspan x="10" y="5562">[0611/143214.480088:INFO:CONSOLE(8)] "13", source: http://127.0.0.1:34320/assets.example.js (8)</tspan>

<tspan x="10" y="5578">[0611/143214.481870:INFO:CONSOLE(8)] "21", source: http://127.0.0.1:34320/assets.example.js (8)</tspan>

<tspan x="10" y="5594">[0611/143214.483630:INFO:CONSOLE(8)] "34", source: http://127.0.0.1:34320/assets.example.js (8)</tspan>

<tspan x="10" y="5610">[0611/143214.485384:INFO:CONSOLE(8)] "55", source: http://127.0.0.1:34320/assets.example.js (8)</tspan>

<tspan x="10" y="5626">[0611/143214.487085:INFO:CONSOLE(8)] "89", source: http://127.0.0.1:34320/assets.example.js (8)</tspan>

<tspan x="10" y="5642">[0611/143214.488844:INFO:CONSOLE(8)] "144", source: http://127.0.0.1:34320/assets.example.js (8)</tspan>

<tspan x="10" y="5658">[0611/143214.490600:INFO:CONSOLE(8)] "233", source: http://127.0.0.1:34320/assets.example.js (8)</tspan>

<tspan x="10" y="5674">[0611/143214.492430:INFO:CONSOLE(8)] "377", source: http://127.0.0.1:34320/assets.example.js (8)</tspan>

<tspan x="10" y="5690">[0611/143214.494111:INFO:CONSOLE(8)] "610", source: http://127.0.0.1:34320/assets.example.js (8)</tspan>

<tspan x="10" y="5706">[0611/143214.495715:INFO:CONSOLE(8)] "987", source: http://127.0.0.1:34320/assets.example.js (8)</tspan>

<tspan x="10" y="5722">[0611/143214.497747:INFO:CONSOLE(8)] "1", source: http://127.0.0.1:34320/assets.example.js (8)</tspan>

<tspan x="10" y="5738">[0611/143214.499679:INFO:CONSOLE(8)] "2", source: http://127.0.0.1:34320/assets.example.js (8)</tspan>

<tspan x="10" y="5754">[0611/143214.501403:INFO:CONSOLE(8)] "3", source: http://127.0.0.1:34320/assets.example.js (8)</tspan>

<tspan x="10" y="5770">[0611/143214.503154:INFO:CONSOLE(8)] "5", source: http://127.0.0.1:34320/assets.example.js (8)</tspan>

<tspan x="10" y="5786">[0611/143214.504862:INFO:CONSOLE(8)] "8", source: http://127.0.0.1:34320/assets.example.js (8)</tspan>

<tspan x="10" y="5802">[0611/143214.506624:INFO:CONSOLE(8)] "13", source: http://127.0.0.1:34320/assets.example.js (8)</tspan>

<tspan x="10" y="5818">[0611/143214.508379:INFO:CONSOLE(8)] "21", source: http://127.0.0.1:34320/assets.example.js (8)</tspan>

<tspan x="10" y="5834">[0611/143214.510150:INFO:CONSOLE(8)] "34", source: http://127.0.0.1:34320/assets.example.js (8)</tspan>

<tspan x="10" y="5850">[0611/143214.512082:INFO:CONSOLE(8)] "55", source: http://127.0.0.1:34320/assets.example.js (8)</tspan>

<tspan x="10" y="5866">[0611/143214.513828:INFO:CONSOLE(8)] "89", source: http://127.0.0.1:34320/assets.example.js (8)</tspan>

<tspan x="10" y="5882">[0611/143214.515779:INFO:CONSOLE(8)] "144", source: http://127.0.0.1:34320/assets.example.js (8)</tspan>

<tspan x="10" y="5898">[0611/143214.517529:INFO:CONSOLE(8)] "233", source: http://127.0.0.1:34320/assets.example.js (8)</tspan>

<tspan x="10" y="5914">[0611/143214.519281:INFO:CONSOLE(8)] "377", source: http://127.0.0.1:34320/assets.example.js (8)</tspan>

<tspan x="10" y="5930">[0611/143214.521057:INFO:CONSOLE(8)] "610", source: http://127.0.0.1:34320/assets.example.js (8)</tspan>

<tspan x="10" y="5946">[0611/143214.522819:INFO:CONSOLE(8)] "987", source: http://127.0.0.1:34320/assets.example.js (8)</tspan>

<tspan x="10" y="5962">[0611/143214.524946:INFO:CONSOLE(8)] "𠮷", source: http://127.0.0.1:34320/assets.example.js (8)</tspan>

<tspan x="10" y="5978">[0611/143214.535915:INFO:CONSOLE(12)] "undefined", source: http://127.0.0.1:34320/assets.test.js\</tspan>
<tspan x="10" y="5994"> (12)</tspan>

<tspan x="10" y="6010">[0611/143214.538930:INFO:CONSOLE(8)] "testRunDefault - 85 ms - [browser test-case 1 of 6 passed]\</tspan>
<tspan x="10" y="6026"> - testCase_coverage_es6", source: http://127.0.0.1:34320/assets.example.js (8)</tspan>

<tspan x="10" y="6042">[0611/143214.541898:INFO:CONSOLE(8)] "testRunDefault - 88 ms - [browser test-case 2 of 6 passed]\</tspan>
<tspan x="10" y="6058"> - testCase_istanbulCoverageMerge_default", source: http://127.0.0.1:34320/assets.example.js (8)</tspan>

<tspan x="10" y="6074">[0611/143214.709306:INFO:CONSOLE(8)] "testRunDefault - 255 ms - [browser test-case 3 of 6 passed\</tspan>
<tspan x="10" y="6090">] - testCase_istanbulCoverageReportCreate_default", source: http://127.0.0.1:34320/assets.exampl\</tspan>
<tspan x="10" y="6106">e.js (8)</tspan>

<tspan x="10" y="6122">[0611/143214.713099:INFO:CONSOLE(8)] "testRunDefault - 259 ms - [browser test-case 4 of 6 passed\</tspan>
<tspan x="10" y="6138">] - testCase_istanbulInstrumentInPackage_default", source: http://127.0.0.1:34320/assets.example\</tspan>
<tspan x="10" y="6154">.js (8)</tspan>

<tspan x="10" y="6170">[0611/143214.720036:INFO:CONSOLE(8)] "testRunDefault - 266 ms - [browser test-case 5 of 6 passed\</tspan>
<tspan x="10" y="6186">] - testCase_istanbulInstrumentSync_default", source: http://127.0.0.1:34320/assets.example.js (\</tspan>
<tspan x="10" y="6202">8)</tspan>

<tspan x="10" y="6218">[0611/143214.723192:INFO:CONSOLE(8)] "testRunDefault - 269 ms - [browser test-case 6 of 6 passed\</tspan>
<tspan x="10" y="6234">] - testCase_nop_default", source: http://127.0.0.1:34320/assets.example.js (8)</tspan>

<tspan x="10" y="6250">[0611/143214.734743:INFO:CONSOLE(8)] "domOnEventWindowOnloadTimeElapsed = 1142", source: http://\</tspan>
<tspan x="10" y="6266">127.0.0.1:34320/assets.example.js (8)</tspan>

<tspan x="10" y="6282">testRunDefault - 3215 ms - [node test-case 11 of 12 passed] - testCase_webpage_default</tspan>

<tspan x="10" y="6298">testRunDefault - 6054 ms - testCase pending - testCase_buildApp_default ...</tspan>

<tspan x="10" y="6314">jslint - 4ms - /tmp/npmTestPublished/node_modules/istanbul-lite/tmp/build/app/assets.example.htm\</tspan>
<tspan x="10" y="6330">l</tspan>

<tspan x="10" y="6346">jslint - 7ms - /tmp/npmTestPublished/node_modules/istanbul-lite/tmp/build/app/assets.istanbul.ht\</tspan>
<tspan x="10" y="6362">ml</tspan>

<tspan x="10" y="6378">jslint - 7ms - /tmp/npmTestPublished/node_modules/istanbul-lite/tmp/build/app/index.html</tspan>

<tspan x="10" y="6394">jslint - 10ms - /tmp/npmTestPublished/node_modules/istanbul-lite/tmp/build/app/assets.utility2.h\</tspan>
<tspan x="10" y="6410">tml</tspan>

<tspan x="10" y="6426">jslint - 14ms - /tmp/npmTestPublished/node_modules/istanbul-lite/tmp/build/app/assets.example.js</tspan>

<tspan x="10" y="6442">jslint - 16ms - /tmp/npmTestPublished/node_modules/istanbul-lite/tmp/build/app/assets.test.js</tspan>

<tspan x="10" y="6458">jslint - 19ms - /tmp/npmTestPublished/node_modules/istanbul-lite/tmp/build/app/utility2.state.in\</tspan>
<tspan x="10" y="6474">it.js</tspan>

<tspan x="10" y="6490">jslint - 33ms - /tmp/npmTestPublished/node_modules/istanbul-lite/tmp/build/app/assets.istanbul.j\</tspan>
<tspan x="10" y="6506">s</tspan>

<tspan x="10" y="6522">testRunDefault - 7094 ms - [node test-case 12 of 12 passed] - testCase_buildApp_default</tspan>

<tspan x="10" y="6538">------------------|---------|---------|---------|---------|</tspan>

<tspan x="10" y="6554">File              | % Stmts | % Brchs | % Funcs | % Lines |</tspan>

<tspan x="10" y="6570">------------------|---------|---------|---------|---------|</tspan>

<tspan x="10" y="6586">All files         |   99.92 |   90.53 |     100 |   99.91 |</tspan>

<tspan x="10" y="6602">istanbul-lite/    |   99.92 |   90.53 |     100 |   99.91 |</tspan>

<tspan x="10" y="6618">  example.js      |     100 |     100 |     100 |     100 |</tspan>

<tspan x="10" y="6634">  lib.istanbul.js |   99.91 |    90.4 |     100 |   99.91 |</tspan>

<tspan x="10" y="6650">  test.js         |     100 |   87.36 |     100 |     100 |</tspan>

<tspan x="10" y="6666">------------------|---------|---------|---------|---------|</tspan>

<tspan x="10" y="6682"></tspan>

<tspan x="10" y="6698">wrote file - coverage-report - /tmp/npmTestPublished/node_modules/istanbul-lite/tmp/build/covera\</tspan>
<tspan x="10" y="6714">ge.html/coverage.txt</tspan>

<tspan x="10" y="6730">wrote file - coverage-report - /tmp/npmTestPublished/node_modules/istanbul-lite/tmp/build/covera\</tspan>
<tspan x="10" y="6746">ge.html/index.html</tspan>

<tspan x="10" y="6762">wrote file - coverage-report - /tmp/npmTestPublished/node_modules/istanbul-lite/tmp/build/covera\</tspan>
<tspan x="10" y="6778">ge.html/istanbul-lite/index.html</tspan>

<tspan x="10" y="6794">wrote file - coverage-report - /tmp/npmTestPublished/node_modules/istanbul-lite/tmp/build/covera\</tspan>
<tspan x="10" y="6810">ge.html/istanbul-lite/example.js.html</tspan>

<tspan x="10" y="6826">wrote file - coverage-report - /tmp/npmTestPublished/node_modules/istanbul-lite/tmp/build/covera\</tspan>
<tspan x="10" y="6842">ge.html/istanbul-lite/lib.istanbul.js.html</tspan>

<tspan x="10" y="6858">wrote file - coverage-report - /tmp/npmTestPublished/node_modules/istanbul-lite/tmp/build/covera\</tspan>
<tspan x="10" y="6874">ge.html/istanbul-lite/test.js.html</tspan>

<tspan x="10" y="6890">wrote file - coverage-report - /tmp/npmTestPublished/node_modules/istanbul-lite/tmp/build/covera\</tspan>
<tspan x="10" y="6906">ge.html/coverage.all.html</tspan>

<tspan x="10" y="6922">wrote file - coverage-report - /tmp/npmTestPublished/node_modules/istanbul-lite/tmp/build/covera\</tspan>
<tspan x="10" y="6938">ge.html/coverage.json</tspan>

<tspan x="10" y="6954">wrote file - coverage-report - /tmp/npmTestPublished/node_modules/istanbul-lite/tmp/build/covera\</tspan>
<tspan x="10" y="6970">ge.html/coverage.include.json</tspan>

<tspan x="10" y="6986">wrote file - coverage-report - /tmp/npmTestPublished/node_modules/istanbul-lite/tmp/build/covera\</tspan>
<tspan x="10" y="7002">ge.badge.svg</tspan>

<tspan x="10" y="7018">istanbul - created coverage file /tmp/npmTestPublished/node_modules/istanbul-lite/tmp/build/cove\</tspan>
<tspan x="10" y="7034">rage.html/index.html</tspan>

<tspan x="10" y="7050"></tspan>

<tspan x="10" y="7066">-------------------------------------------------------</tspan>

<tspan x="10" y="7082">| test-report - npmTestPublished - browser - / - Mozilla/5.0 (X11; Linux x86_64) AppleWebKit/537\</tspan>
<tspan x="10" y="7098">.36 (KHTML, like Gecko) HeadlessChrome/83.0.4103.97 Safari/537.36 - 2020-06-11T14:32:13.712Z</tspan>

<tspan x="10" y="7114">|     272 ms            0 failed        6 passed      |</tspan>

<tspan x="10" y="7130">-------------------------------------------------------</tspan>

<tspan x="10" y="7146">| test-report - npmTestPublished - node - linux v14.4.0 - 2020-06-11T14:32:09.298Z</tspan>

<tspan x="10" y="7162">|    7094 ms            0 failed       12 passed      |</tspan>

<tspan x="10" y="7178">-------------------------------------------------------</tspan>

<tspan x="10" y="7194"></tspan>

<tspan x="10" y="7210">wrote file - test-report - /tmp/npmTestPublished/node_modules/istanbul-lite/tmp/build/test-repor\</tspan>
<tspan x="10" y="7226">t.html</tspan>

<tspan x="10" y="7242">wrote file - test-report - /tmp/npmTestPublished/node_modules/istanbul-lite/tmp/build/build.badg\</tspan>
<tspan x="10" y="7258">e.svg</tspan>

<tspan x="10" y="7274">wrote file - test-report - /tmp/npmTestPublished/node_modules/istanbul-lite/tmp/build/test-repor\</tspan>
<tspan x="10" y="7290">t.badge.svg</tspan>

<tspan x="10" y="7306"></tspan>

<tspan x="10" y="7322">npmTestPublished - 0 failed tests</tspan>

<tspan x="10" y="7338"></tspan>

<tspan x="10" y="7354"></tspan>

<tspan x="10" y="7370">\x1b[35m[MODE_BUILD=npmTestPublished]\x1b[0m - 2020-06-11T14:32:19.192Z - EXIT_CODE - 0</tspan>

</text>
</svg>
