<svg height="5998" width="720" xmlns="http://www.w3.org/2000/svg">
<rect height="5998" fill="#555" width="720"></rect>
<text fill="#7f7" font-family="Courier New" font-size="12" xml:space="preserve">
<tspan x="10" y="26"></tspan>

<tspan x="10" y="42">\x1b[35m[MODE_BUILD=npmTestPublished]\x1b[0m - 2020-06-09T14:13:27.578Z - npm-testing /tmp/npmTe\</tspan>
<tspan x="10" y="58">stPublished/node_modules/istanbul-lite</tspan>

<tspan x="10" y="74"></tspan>

<tspan x="10" y="90"></tspan>

<tspan x="10" y="106">istanbul - covering $ /home/travis/.nvm/versions/node/v14.4.0/bin/node /tmp/npmTestPublished/nod\</tspan>
<tspan x="10" y="122">e_modules/istanbul-lite/test.js</tspan>

<tspan x="10" y="138">&gt; jslint - 6ms - /tmp/npmTestPublished/node_modules/istanbul-lite/npm_scripts.sh</tspan>

<tspan x="10" y="154">--- /tmp/npmTestPublished/node_modules/istanbul-lite/package.json.autofix.old	2020-06-09 14:13:2\</tspan>
<tspan x="10" y="170">8.085444093 +0000</tspan>

<tspan x="10" y="186">+++ /tmp/npmTestPublished/node_modules/istanbul-lite/package.json	2020-06-09 14:13:28.085444093 \</tspan>
<tspan x="10" y="202">+0000</tspan>

<tspan x="10" y="218">@@ -1,76 +1,76 @@</tspan>

<tspan x="10" y="234"> {</tspan>

<tspan x="10" y="250">-  "_from": "istanbul-lite",</tspan>

<tspan x="10" y="266">-  "_id": "istanbul-lite@2020.6.8",</tspan>

<tspan x="10" y="282">-  "_inBundle": false,</tspan>

<tspan x="10" y="298">-  "_integrity": "sha512-04BZcWsHR5KNb62VGJ/RGo+H1aStSCtYvJoL2UKUI4K/ZdnidjiX1ZCEGRo6DeWSIDlP3ss\</tspan>
<tspan x="10" y="314">SbYfU2mXg7epCTw==",</tspan>

<tspan x="10" y="330">-  "_location": "/istanbul-lite",</tspan>

<tspan x="10" y="346">-  "_phantomChildren": {},</tspan>

<tspan x="10" y="362">-  "_requested": {</tspan>

<tspan x="10" y="378">-    "type": "tag",</tspan>

<tspan x="10" y="394">-    "registry": true,</tspan>

<tspan x="10" y="410">-    "raw": "istanbul-lite",</tspan>

<tspan x="10" y="426">+    "_from": "istanbul-lite",</tspan>

<tspan x="10" y="442">+    "_id": "istanbul-lite@2020.6.8",</tspan>

<tspan x="10" y="458">+    "_inBundle": false,</tspan>

<tspan x="10" y="474">+    "_integrity": "sha512-04BZcWsHR5KNb62VGJ/RGo+H1aStSCtYvJoL2UKUI4K/ZdnidjiX1ZCEGRo6DeWSIDlP3\</tspan>
<tspan x="10" y="490">ssSbYfU2mXg7epCTw==",</tspan>

<tspan x="10" y="506">+    "_location": "/istanbul-lite",</tspan>

<tspan x="10" y="522">+    "_phantomChildren": {},</tspan>

<tspan x="10" y="538">+    "_requested": {</tspan>

<tspan x="10" y="554">+        "escapedName": "istanbul-lite",</tspan>

<tspan x="10" y="570">+        "fetchSpec": "latest",</tspan>

<tspan x="10" y="586">+        "name": "istanbul-lite",</tspan>

<tspan x="10" y="602">+        "raw": "istanbul-lite",</tspan>

<tspan x="10" y="618">+        "rawSpec": "",</tspan>

<tspan x="10" y="634">+        "registry": true,</tspan>

<tspan x="10" y="650">+        "saveSpec": null,</tspan>

<tspan x="10" y="666">+        "type": "tag"</tspan>

<tspan x="10" y="682">+    },</tspan>

<tspan x="10" y="698">+    "_requiredBy_": [</tspan>

<tspan x="10" y="714">+        "#USER",</tspan>

<tspan x="10" y="730">+        "/"</tspan>

<tspan x="10" y="746">+    ],</tspan>

<tspan x="10" y="762">+    "_resolved": "https://registry.npmjs.org/istanbul-lite/-/istanbul-lite-2020.6.8.tgz",</tspan>

<tspan x="10" y="778">+    "_shasum": "90c82063c8d38e13084a7c29fa0fae3af2b12005",</tspan>

<tspan x="10" y="794">+    "_spec": "istanbul-lite",</tspan>

<tspan x="10" y="810">+    "_where": "/tmp/npmTestPublished",</tspan>

<tspan x="10" y="826">+    "author": {</tspan>

<tspan x="10" y="842">+        "email": "kaizhu256@gmail.com",</tspan>

<tspan x="10" y="858">+        "name": "kai zhu"</tspan>

<tspan x="10" y="874">+    },</tspan>

<tspan x="10" y="890">+    "bin": {</tspan>

<tspan x="10" y="906">+        "istanbul-lite": "lib.istanbul.js"</tspan>

<tspan x="10" y="922">+    },</tspan>

<tspan x="10" y="938">+    "bugs": {</tspan>

<tspan x="10" y="954">+        "url": "https://github.com/kaizhu256/node-istanbul-lite/issues"</tspan>

<tspan x="10" y="970">+    },</tspan>

<tspan x="10" y="986">+    "bundleDependencies": false,</tspan>

<tspan x="10" y="1002">+    "deprecated": false,</tspan>

<tspan x="10" y="1018">+    "description": "this zero-dependency package will provide browser-compatible version of ist\</tspan>
<tspan x="10" y="1034">anbul coverage-tool (v0.4.5), with working web-demo",</tspan>

<tspan x="10" y="1050">+    "devDependencies": {</tspan>

<tspan x="10" y="1066">+        "utility2": "github:kaizhu256/node-utility2#alpha"</tspan>

<tspan x="10" y="1082">+    },</tspan>

<tspan x="10" y="1098">+    "engines": {</tspan>

<tspan x="10" y="1114">+        "node": "&gt;=12.0"</tspan>

<tspan x="10" y="1130">+    },</tspan>

<tspan x="10" y="1146">+    "fileCount": 8,</tspan>

<tspan x="10" y="1162">+    "homepage": "https://github.com/kaizhu256/node-istanbul-lite",</tspan>

<tspan x="10" y="1178">+    "keywords": [</tspan>

<tspan x="10" y="1194">+        "coverage",</tspan>

<tspan x="10" y="1210">+        "istanbul"</tspan>

<tspan x="10" y="1226">+    ],</tspan>

<tspan x="10" y="1242">+    "license": "MIT",</tspan>

<tspan x="10" y="1258">+    "main": "lib.istanbul.js",</tspan>

<tspan x="10" y="1274">     "name": "istanbul-lite",</tspan>

<tspan x="10" y="1290">-    "escapedName": "istanbul-lite",</tspan>

<tspan x="10" y="1306">-    "rawSpec": "",</tspan>

<tspan x="10" y="1322">-    "saveSpec": null,</tspan>

<tspan x="10" y="1338">-    "fetchSpec": "latest"</tspan>

<tspan x="10" y="1354">-  },</tspan>

<tspan x="10" y="1370">-  "_requiredBy_": [</tspan>

<tspan x="10" y="1386">-    "#USER",</tspan>

<tspan x="10" y="1402">-    "/"</tspan>

<tspan x="10" y="1418">-  ],</tspan>

<tspan x="10" y="1434">-  "_resolved": "https://registry.npmjs.org/istanbul-lite/-/istanbul-lite-2020.6.8.tgz",</tspan>

<tspan x="10" y="1450">-  "_shasum": "90c82063c8d38e13084a7c29fa0fae3af2b12005",</tspan>

<tspan x="10" y="1466">-  "_spec": "istanbul-lite",</tspan>

<tspan x="10" y="1482">-  "_where": "/tmp/npmTestPublished",</tspan>

<tspan x="10" y="1498">-  "author": {</tspan>

<tspan x="10" y="1514">-    "name": "kai zhu",</tspan>

<tspan x="10" y="1530">-    "email": "kaizhu256@gmail.com"</tspan>

<tspan x="10" y="1546">-  },</tspan>

<tspan x="10" y="1562">-  "bin": {</tspan>

<tspan x="10" y="1578">-    "istanbul-lite": "lib.istanbul.js"</tspan>

<tspan x="10" y="1594">-  },</tspan>

<tspan x="10" y="1610">-  "bugs": {</tspan>

<tspan x="10" y="1626">-    "url": "https://github.com/kaizhu256/node-istanbul-lite/issues"</tspan>

<tspan x="10" y="1642">-  },</tspan>

<tspan x="10" y="1658">-  "bundleDependencies": false,</tspan>

<tspan x="10" y="1674">-  "deprecated": false,</tspan>

<tspan x="10" y="1690">-  "description": "this zero-dependency package will provide browser-compatible version of istan\</tspan>
<tspan x="10" y="1706">bul coverage-tool (v0.4.5), with working web-demo",</tspan>

<tspan x="10" y="1722">-  "devDependencies": {</tspan>

<tspan x="10" y="1738">-    "utility2": "github:kaizhu256/node-utility2#alpha"</tspan>

<tspan x="10" y="1754">-  },</tspan>

<tspan x="10" y="1770">-  "engines": {</tspan>

<tspan x="10" y="1786">-    "node": "&gt;=12.0"</tspan>

<tspan x="10" y="1802">-  },</tspan>

<tspan x="10" y="1818">-  "fileCount": 8,</tspan>

<tspan x="10" y="1834">-  "homepage": "https://github.com/kaizhu256/node-istanbul-lite",</tspan>

<tspan x="10" y="1850">-  "keywords": [</tspan>

<tspan x="10" y="1866">-    "coverage",</tspan>

<tspan x="10" y="1882">-    "istanbul"</tspan>

<tspan x="10" y="1898">-  ],</tspan>

<tspan x="10" y="1914">-  "license": "MIT",</tspan>

<tspan x="10" y="1930">-  "main": "lib.istanbul.js",</tspan>

<tspan x="10" y="1946">-  "name": "istanbul-lite",</tspan>

<tspan x="10" y="1962">-  "nameAliasPublish": "",</tspan>

<tspan x="10" y="1978">-  "nameLib": "istanbul",</tspan>

<tspan x="10" y="1994">-  "nameOriginal": "istanbul-lite",</tspan>

<tspan x="10" y="2010">-  "os": [</tspan>

<tspan x="10" y="2026">-    "darwin",</tspan>

<tspan x="10" y="2042">-    "linux"</tspan>

<tspan x="10" y="2058">-  ],</tspan>

<tspan x="10" y="2074">-  "repository": {</tspan>

<tspan x="10" y="2090">-    "type": "git",</tspan>

<tspan x="10" y="2106">-    "url": "git+https://github.com/kaizhu256/node-istanbul-lite.git"</tspan>

<tspan x="10" y="2122">-  },</tspan>

<tspan x="10" y="2138">-  "scripts": {</tspan>

<tspan x="10" y="2154">-    "build-ci": "./npm_scripts.sh",</tspan>

<tspan x="10" y="2170">-    "env": "env",</tspan>

<tspan x="10" y="2186">-    "eval": "./npm_scripts.sh",</tspan>

<tspan x="10" y="2202">-    "heroku-postbuild": "./npm_scripts.sh",</tspan>

<tspan x="10" y="2218">-    "postinstall": "./npm_scripts.sh",</tspan>

<tspan x="10" y="2234">-    "start": "./npm_scripts.sh",</tspan>

<tspan x="10" y="2250">-    "test": "./npm_scripts.sh",</tspan>

<tspan x="10" y="2266">-    "utility2": "./npm_scripts.sh"</tspan>

<tspan x="10" y="2282">-  },</tspan>

<tspan x="10" y="2298">-  "version": "2020.6.8"</tspan>

<tspan x="10" y="2314">+    "nameAliasPublish": "",</tspan>

<tspan x="10" y="2330">+    "nameLib": "istanbul",</tspan>

<tspan x="10" y="2346">+    "nameOriginal": "istanbul-lite",</tspan>

<tspan x="10" y="2362">+    "os": [</tspan>

<tspan x="10" y="2378">+        "darwin",</tspan>

<tspan x="10" y="2394">+        "linux"</tspan>

<tspan x="10" y="2410">+    ],</tspan>

<tspan x="10" y="2426">+    "repository": {</tspan>

<tspan x="10" y="2442">+        "type": "git",</tspan>

<tspan x="10" y="2458">+        "url": "git+https://github.com/kaizhu256/node-istanbul-lite.git"</tspan>

<tspan x="10" y="2474">+    },</tspan>

<tspan x="10" y="2490">+    "scripts": {</tspan>

<tspan x="10" y="2506">+        "build-ci": "./npm_scripts.sh",</tspan>

<tspan x="10" y="2522">+        "env": "env",</tspan>

<tspan x="10" y="2538">+        "eval": "./npm_scripts.sh",</tspan>

<tspan x="10" y="2554">+        "heroku-postbuild": "./npm_scripts.sh",</tspan>

<tspan x="10" y="2570">+        "postinstall": "./npm_scripts.sh",</tspan>

<tspan x="10" y="2586">+        "start": "./npm_scripts.sh",</tspan>

<tspan x="10" y="2602">+        "test": "./npm_scripts.sh",</tspan>

<tspan x="10" y="2618">+        "utility2": "./npm_scripts.sh"</tspan>

<tspan x="10" y="2634">+    },</tspan>

<tspan x="10" y="2650">+    "version": "2020.6.8"</tspan>

<tspan x="10" y="2666"> }</tspan>

<tspan x="10" y="2682">jslint-autofix - modified and saved file /tmp/npmTestPublished/node_modules/istanbul-lite/packag\</tspan>
<tspan x="10" y="2698">e.json</tspan>

<tspan x="10" y="2714">jslint - 45ms - /tmp/npmTestPublished/node_modules/istanbul-lite/package.json</tspan>

<tspan x="10" y="2730">jslint - 134ms - /tmp/npmTestPublished/node_modules/istanbul-lite/test.js</tspan>

<tspan x="10" y="2746">jslint - 550ms - /tmp/npmTestPublished/node_modules/istanbul-lite/README.md</tspan>

<tspan x="10" y="2762">jslint - 1072ms - /tmp/npmTestPublished/node_modules/istanbul-lite/lib.istanbul.js</tspan>

<tspan x="10" y="2778">http-server listening on port 59098</tspan>

<tspan x="10" y="2794">testRunDefault - 75 ms - [node test-case 1 of 12 passed] - testCase_buildLib_default</tspan>

<tspan x="10" y="2810">testRunDefault - 80 ms - [node test-case 2 of 12 passed] - testCase_buildReadme_default</tspan>

<tspan x="10" y="2826">testRunDefault - 83 ms - [node test-case 3 of 12 passed] - testCase_buildTest_default</tspan>

<tspan x="10" y="2842">Bob knows John</tspan>

<tspan x="10" y="2858">5</tspan>

<tspan x="10" y="2874">1</tspan>

<tspan x="10" y="2890">2</tspan>

<tspan x="10" y="2906">3</tspan>

<tspan x="10" y="2922">5</tspan>

<tspan x="10" y="2938">8</tspan>

<tspan x="10" y="2954">13</tspan>

<tspan x="10" y="2970">21</tspan>

<tspan x="10" y="2986">34</tspan>

<tspan x="10" y="3002">55</tspan>

<tspan x="10" y="3018">89</tspan>

<tspan x="10" y="3034">144</tspan>

<tspan x="10" y="3050">233</tspan>

<tspan x="10" y="3066">377</tspan>

<tspan x="10" y="3082">610</tspan>

<tspan x="10" y="3098">987</tspan>

<tspan x="10" y="3114">1</tspan>

<tspan x="10" y="3130">2</tspan>

<tspan x="10" y="3146">3</tspan>

<tspan x="10" y="3162">5</tspan>

<tspan x="10" y="3178">8</tspan>

<tspan x="10" y="3194">13</tspan>

<tspan x="10" y="3210">21</tspan>

<tspan x="10" y="3226">34</tspan>

<tspan x="10" y="3242">55</tspan>

<tspan x="10" y="3258">89</tspan>

<tspan x="10" y="3274">144</tspan>

<tspan x="10" y="3290">233</tspan>

<tspan x="10" y="3306">377</tspan>

<tspan x="10" y="3322">610</tspan>

<tspan x="10" y="3338">987</tspan>

<tspan x="10" y="3354">𠮷</tspan>

<tspan x="10" y="3370">Assertion failed: undefined</tspan>

<tspan x="10" y="3386">testRunDefault - 90 ms - [node test-case 4 of 12 passed] - testCase_coverage_es6</tspan>

<tspan x="10" y="3402">testRunDefault - 111 ms - [node test-case 5 of 12 passed] - testCase_istanbulCoverageMerge_defau\</tspan>
<tspan x="10" y="3418">lt</tspan>

<tspan x="10" y="3434">testRunDefault - 1339 ms - [node test-case 6 of 12 passed] - testCase_istanbulCoverageReportCrea\</tspan>
<tspan x="10" y="3450">te_default</tspan>

<tspan x="10" y="3466">testRunDefault - 1340 ms - [node test-case 7 of 12 passed] - testCase_istanbulInstrumentInPackag\</tspan>
<tspan x="10" y="3482">e_default</tspan>

<tspan x="10" y="3498">testRunDefault - 1343 ms - [node test-case 8 of 12 passed] - testCase_istanbulInstrumentSync_def\</tspan>
<tspan x="10" y="3514">ault</tspan>

<tspan x="10" y="3530">testRunDefault - 1343 ms - [node test-case 9 of 12 passed] - testCase_nop_default</tspan>

<tspan x="10" y="3546">testRunDefault - 1551 ms - [node test-case 10 of 12 passed] - testCase_buildApidoc_default</tspan>

<tspan x="10" y="3562"></tspan>

<tspan x="10" y="3578">DevTools listening on ws://127.0.0.1:43957/devtools/browser/2dc62dd4-4b70-4a2f-b113-fcddc5edc0c1</tspan>

<tspan x="10" y="3594">&gt; http-server listening on port 48769</tspan>

<tspan x="10" y="3610">[0609/141332.960243:INFO:CONSOLE(8)] "hello", source: http://127.0.0.1:59098/assets.example.js (\</tspan>
<tspan x="10" y="3626">8)</tspan>

<tspan x="10" y="3642">[0609/141332.967746:INFO:CONSOLE(8)] "1", source: http://127.0.0.1:59098/assets.example.js (8)</tspan>

<tspan x="10" y="3658">[0609/141332.969822:INFO:CONSOLE(8)] "2", source: http://127.0.0.1:59098/assets.example.js (8)</tspan>

<tspan x="10" y="3674">[0609/141332.971479:INFO:CONSOLE(8)] "3", source: http://127.0.0.1:59098/assets.example.js (8)</tspan>

<tspan x="10" y="3690">[0609/141332.973290:INFO:CONSOLE(8)] "5", source: http://127.0.0.1:59098/assets.example.js (8)</tspan>

<tspan x="10" y="3706">[0609/141332.974944:INFO:CONSOLE(8)] "8", source: http://127.0.0.1:59098/assets.example.js (8)</tspan>

<tspan x="10" y="3722">[0609/141332.976677:INFO:CONSOLE(8)] "13", source: http://127.0.0.1:59098/assets.example.js (8)</tspan>

<tspan x="10" y="3738">[0609/141332.978503:INFO:CONSOLE(8)] "21", source: http://127.0.0.1:59098/assets.example.js (8)</tspan>

<tspan x="10" y="3754">[0609/141332.980012:INFO:CONSOLE(8)] "34", source: http://127.0.0.1:59098/assets.example.js (8)</tspan>

<tspan x="10" y="3770">[0609/141332.981584:INFO:CONSOLE(8)] "55", source: http://127.0.0.1:59098/assets.example.js (8)</tspan>

<tspan x="10" y="3786">[0609/141332.982938:INFO:CONSOLE(8)] "89", source: http://127.0.0.1:59098/assets.example.js (8)</tspan>

<tspan x="10" y="3802">[0609/141332.984433:INFO:CONSOLE(8)] "144", source: http://127.0.0.1:59098/assets.example.js (8)</tspan>

<tspan x="10" y="3818">[0609/141332.985980:INFO:CONSOLE(8)] "233", source: http://127.0.0.1:59098/assets.example.js (8)</tspan>

<tspan x="10" y="3834">[0609/141332.987376:INFO:CONSOLE(8)] "377", source: http://127.0.0.1:59098/assets.example.js (8)</tspan>

<tspan x="10" y="3850">[0609/141332.988773:INFO:CONSOLE(8)] "610", source: http://127.0.0.1:59098/assets.example.js (8)</tspan>

<tspan x="10" y="3866">[0609/141332.990090:INFO:CONSOLE(8)] "987", source: http://127.0.0.1:59098/assets.example.js (8)</tspan>

<tspan x="10" y="3882">[0609/141333.002100:INFO:CONSOLE(8)] "--------------------|---------|---------|---------|-------\</tspan>
<tspan x="10" y="3898">--|</tspan>

<tspan x="10" y="3914">File                | % Stmts | % Brchs | % Funcs | % Lines |</tspan>

<tspan x="10" y="3930">--------------------|---------|---------|---------|---------|</tspan>

<tspan x="10" y="3946">All files           |   91.67 |      75 |     100 |   91.67 |</tspan>

<tspan x="10" y="3962">All files           |   91.67 |      75 |     100 |   91.67 |</tspan>

<tspan x="10" y="3978">  inputTextarea1.js |   91.67 |      75 |     100 |   91.67 |</tspan>

<tspan x="10" y="3994">--------------------|---------|---------|---------|---------|</tspan>

<tspan x="10" y="4010">", source: http://127.0.0.1:59098/assets.example.js (8)</tspan>

<tspan x="10" y="4026">[0609/141333.070756:INFO:CONSOLE(8)] "istanbul - created coverage file tmp/build/coverage.html/i\</tspan>
<tspan x="10" y="4042">ndex.html", source: http://127.0.0.1:59098/assets.example.js (8)</tspan>

<tspan x="10" y="4058">[0609/141333.121633:INFO:CONSOLE(8)] "Bob knows John", source: http://127.0.0.1:59098/assets.exa\</tspan>
<tspan x="10" y="4074">mple.js (8)</tspan>

<tspan x="10" y="4090">[0609/141333.132761:INFO:CONSOLE(8)] "5", source: http://127.0.0.1:59098/assets.example.js (8)</tspan>

<tspan x="10" y="4106">[0609/141333.135938:INFO:CONSOLE(8)] "1", source: http://127.0.0.1:59098/assets.example.js (8)</tspan>

<tspan x="10" y="4122">[0609/141333.138486:INFO:CONSOLE(8)] "2", source: http://127.0.0.1:59098/assets.example.js (8)</tspan>

<tspan x="10" y="4138">[0609/141333.140865:INFO:CONSOLE(8)] "3", source: http://127.0.0.1:59098/assets.example.js (8)</tspan>

<tspan x="10" y="4154">[0609/141333.143133:INFO:CONSOLE(8)] "5", source: http://127.0.0.1:59098/assets.example.js (8)</tspan>

<tspan x="10" y="4170">[0609/141333.145768:INFO:CONSOLE(8)] "8", source: http://127.0.0.1:59098/assets.example.js (8)</tspan>

<tspan x="10" y="4186">[0609/141333.148047:INFO:CONSOLE(8)] "13", source: http://127.0.0.1:59098/assets.example.js (8)</tspan>

<tspan x="10" y="4202">[0609/141333.163904:INFO:CONSOLE(8)] "21", source: http://127.0.0.1:59098/assets.example.js (8)</tspan>

<tspan x="10" y="4218">[0609/141333.170124:INFO:CONSOLE(8)] "34", source: http://127.0.0.1:59098/assets.example.js (8)</tspan>

<tspan x="10" y="4234">[0609/141333.176172:INFO:CONSOLE(8)] "55", source: http://127.0.0.1:59098/assets.example.js (8)</tspan>

<tspan x="10" y="4250">[0609/141333.182675:INFO:CONSOLE(8)] "89", source: http://127.0.0.1:59098/assets.example.js (8)</tspan>

<tspan x="10" y="4266">[0609/141333.187581:INFO:CONSOLE(8)] "144", source: http://127.0.0.1:59098/assets.example.js (8)</tspan>

<tspan x="10" y="4282">[0609/141333.193109:INFO:CONSOLE(8)] "233", source: http://127.0.0.1:59098/assets.example.js (8)</tspan>

<tspan x="10" y="4298">[0609/141333.199474:INFO:CONSOLE(8)] "377", source: http://127.0.0.1:59098/assets.example.js (8)</tspan>

<tspan x="10" y="4314">[0609/141333.206787:INFO:CONSOLE(8)] "610", source: http://127.0.0.1:59098/assets.example.js (8)</tspan>

<tspan x="10" y="4330">[0609/141333.213959:INFO:CONSOLE(8)] "987", source: http://127.0.0.1:59098/assets.example.js (8)</tspan>

<tspan x="10" y="4346">[0609/141333.222127:INFO:CONSOLE(8)] "1", source: http://127.0.0.1:59098/assets.example.js (8)</tspan>

<tspan x="10" y="4362">[0609/141333.229907:INFO:CONSOLE(8)] "2", source: http://127.0.0.1:59098/assets.example.js (8)</tspan>

<tspan x="10" y="4378">[0609/141333.237098:INFO:CONSOLE(8)] "3", source: http://127.0.0.1:59098/assets.example.js (8)</tspan>

<tspan x="10" y="4394">[0609/141333.240808:INFO:CONSOLE(8)] "5", source: http://127.0.0.1:59098/assets.example.js (8)</tspan>

<tspan x="10" y="4410">[0609/141333.242250:INFO:CONSOLE(8)] "8", source: http://127.0.0.1:59098/assets.example.js (8)</tspan>

<tspan x="10" y="4426">[0609/141333.243518:INFO:CONSOLE(8)] "13", source: http://127.0.0.1:59098/assets.example.js (8)</tspan>

<tspan x="10" y="4442">[0609/141333.245423:INFO:CONSOLE(8)] "21", source: http://127.0.0.1:59098/assets.example.js (8)</tspan>

<tspan x="10" y="4458">[0609/141333.247004:INFO:CONSOLE(8)] "34", source: http://127.0.0.1:59098/assets.example.js (8)</tspan>

<tspan x="10" y="4474">[0609/141333.248610:INFO:CONSOLE(8)] "55", source: http://127.0.0.1:59098/assets.example.js (8)</tspan>

<tspan x="10" y="4490">[0609/141333.250186:INFO:CONSOLE(8)] "89", source: http://127.0.0.1:59098/assets.example.js (8)</tspan>

<tspan x="10" y="4506">[0609/141333.251777:INFO:CONSOLE(8)] "144", source: http://127.0.0.1:59098/assets.example.js (8)</tspan>

<tspan x="10" y="4522">[0609/141333.253329:INFO:CONSOLE(8)] "233", source: http://127.0.0.1:59098/assets.example.js (8)</tspan>

<tspan x="10" y="4538">[0609/141333.254801:INFO:CONSOLE(8)] "377", source: http://127.0.0.1:59098/assets.example.js (8)</tspan>

<tspan x="10" y="4554">[0609/141333.256258:INFO:CONSOLE(8)] "610", source: http://127.0.0.1:59098/assets.example.js (8)</tspan>

<tspan x="10" y="4570">[0609/141333.257716:INFO:CONSOLE(8)] "987", source: http://127.0.0.1:59098/assets.example.js (8)</tspan>

<tspan x="10" y="4586">[0609/141333.259435:INFO:CONSOLE(8)] "𠮷", source: http://127.0.0.1:59098/assets.example.js (8)</tspan>

<tspan x="10" y="4602">[0609/141333.268371:INFO:CONSOLE(12)] "undefined", source: http://127.0.0.1:59098/assets.test.js\</tspan>
<tspan x="10" y="4618"> (12)</tspan>

<tspan x="10" y="4634">[0609/141333.271107:INFO:CONSOLE(8)] "testRunDefault - 156 ms - [browser test-case 1 of 6 passed\</tspan>
<tspan x="10" y="4650">] - testCase_coverage_es6", source: http://127.0.0.1:59098/assets.example.js (8)</tspan>

<tspan x="10" y="4666">[0609/141333.274359:INFO:CONSOLE(8)] "testRunDefault - 159 ms - [browser test-case 2 of 6 passed\</tspan>
<tspan x="10" y="4682">] - testCase_istanbulCoverageMerge_default", source: http://127.0.0.1:59098/assets.example.js (8\</tspan>
<tspan x="10" y="4698">)</tspan>

<tspan x="10" y="4714">[0609/141333.430582:INFO:CONSOLE(8)] "testRunDefault - 315 ms - [browser test-case 3 of 6 passed\</tspan>
<tspan x="10" y="4730">] - testCase_istanbulCoverageReportCreate_default", source: http://127.0.0.1:59098/assets.exampl\</tspan>
<tspan x="10" y="4746">e.js (8)</tspan>

<tspan x="10" y="4762">[0609/141333.434106:INFO:CONSOLE(8)] "testRunDefault - 319 ms - [browser test-case 4 of 6 passed\</tspan>
<tspan x="10" y="4778">] - testCase_istanbulInstrumentInPackage_default", source: http://127.0.0.1:59098/assets.example\</tspan>
<tspan x="10" y="4794">.js (8)</tspan>

<tspan x="10" y="4810">[0609/141333.438669:INFO:CONSOLE(8)] "testRunDefault - 323 ms - [browser test-case 5 of 6 passed\</tspan>
<tspan x="10" y="4826">] - testCase_istanbulInstrumentSync_default", source: http://127.0.0.1:59098/assets.example.js (\</tspan>
<tspan x="10" y="4842">8)</tspan>

<tspan x="10" y="4858">[0609/141333.441972:INFO:CONSOLE(8)] "testRunDefault - 326 ms - [browser test-case 6 of 6 passed\</tspan>
<tspan x="10" y="4874">] - testCase_nop_default", source: http://127.0.0.1:59098/assets.example.js (8)</tspan>

<tspan x="10" y="4890">[0609/141333.445953:INFO:CONSOLE(8)] "domOnEventWindowOnloadTimeElapsed = 1073", source: http://\</tspan>
<tspan x="10" y="4906">127.0.0.1:59098/assets.example.js (8)</tspan>

<tspan x="10" y="4922">testRunDefault - 3389 ms - [node test-case 11 of 12 passed] - testCase_webpage_default</tspan>

<tspan x="10" y="4938">testRunDefault - 6081 ms - testCase pending - testCase_buildApp_default ...</tspan>

<tspan x="10" y="4954">jslint - 4ms - /tmp/npmTestPublished/node_modules/istanbul-lite/tmp/build/app/assets.example.htm\</tspan>
<tspan x="10" y="4970">l</tspan>

<tspan x="10" y="4986">jslint - 5ms - /tmp/npmTestPublished/node_modules/istanbul-lite/tmp/build/app/assets.istanbul.ht\</tspan>
<tspan x="10" y="5002">ml</tspan>

<tspan x="10" y="5018">jslint - 6ms - /tmp/npmTestPublished/node_modules/istanbul-lite/tmp/build/app/index.html</tspan>

<tspan x="10" y="5034">jslint - 6ms - /tmp/npmTestPublished/node_modules/istanbul-lite/tmp/build/app/assets.utility2.ht\</tspan>
<tspan x="10" y="5050">ml</tspan>

<tspan x="10" y="5066">jslint - 7ms - /tmp/npmTestPublished/node_modules/istanbul-lite/tmp/build/app/assets.example.js</tspan>

<tspan x="10" y="5082">jslint - 9ms - /tmp/npmTestPublished/node_modules/istanbul-lite/tmp/build/app/assets.test.js</tspan>

<tspan x="10" y="5098">jslint - 26ms - /tmp/npmTestPublished/node_modules/istanbul-lite/tmp/build/app/assets.istanbul.j\</tspan>
<tspan x="10" y="5114">s</tspan>

<tspan x="10" y="5130">testRunDefault - 7230 ms - [node test-case 12 of 12 passed] - testCase_buildApp_default</tspan>

<tspan x="10" y="5146">------------------|---------|---------|---------|---------|</tspan>

<tspan x="10" y="5162">File              | % Stmts | % Brchs | % Funcs | % Lines |</tspan>

<tspan x="10" y="5178">------------------|---------|---------|---------|---------|</tspan>

<tspan x="10" y="5194">All files         |    99.9 |   99.88 |     100 |    99.9 |</tspan>

<tspan x="10" y="5210">istanbul-lite/    |    99.9 |   99.88 |     100 |    99.9 |</tspan>

<tspan x="10" y="5226">  example.js      |     100 |     100 |     100 |     100 |</tspan>

<tspan x="10" y="5242">  lib.istanbul.js |   99.89 |   99.87 |     100 |   99.89 |</tspan>

<tspan x="10" y="5258">  test.js         |     100 |     100 |     100 |     100 |</tspan>

<tspan x="10" y="5274">------------------|---------|---------|---------|---------|</tspan>

<tspan x="10" y="5290"></tspan>

<tspan x="10" y="5306">wrote file - coverage-report - /tmp/npmTestPublished/node_modules/istanbul-lite/tmp/build/covera\</tspan>
<tspan x="10" y="5322">ge.html/coverage.txt</tspan>

<tspan x="10" y="5338">wrote file - coverage-report - /tmp/npmTestPublished/node_modules/istanbul-lite/tmp/build/covera\</tspan>
<tspan x="10" y="5354">ge.html/index.html</tspan>

<tspan x="10" y="5370">wrote file - coverage-report - /tmp/npmTestPublished/node_modules/istanbul-lite/tmp/build/covera\</tspan>
<tspan x="10" y="5386">ge.html/istanbul-lite/index.html</tspan>

<tspan x="10" y="5402">wrote file - coverage-report - /tmp/npmTestPublished/node_modules/istanbul-lite/tmp/build/covera\</tspan>
<tspan x="10" y="5418">ge.html/istanbul-lite/example.js.html</tspan>

<tspan x="10" y="5434">wrote file - coverage-report - /tmp/npmTestPublished/node_modules/istanbul-lite/tmp/build/covera\</tspan>
<tspan x="10" y="5450">ge.html/istanbul-lite/lib.istanbul.js.html</tspan>

<tspan x="10" y="5466">wrote file - coverage-report - /tmp/npmTestPublished/node_modules/istanbul-lite/tmp/build/covera\</tspan>
<tspan x="10" y="5482">ge.html/istanbul-lite/test.js.html</tspan>

<tspan x="10" y="5498">wrote file - coverage-report - /tmp/npmTestPublished/node_modules/istanbul-lite/tmp/build/covera\</tspan>
<tspan x="10" y="5514">ge.html/coverage.all.html</tspan>

<tspan x="10" y="5530">wrote file - coverage-report - /tmp/npmTestPublished/node_modules/istanbul-lite/tmp/build/covera\</tspan>
<tspan x="10" y="5546">ge.html/coverage.json</tspan>

<tspan x="10" y="5562">wrote file - coverage-report - /tmp/npmTestPublished/node_modules/istanbul-lite/tmp/build/covera\</tspan>
<tspan x="10" y="5578">ge.html/coverage.include.json</tspan>

<tspan x="10" y="5594">wrote file - coverage-report - /tmp/npmTestPublished/node_modules/istanbul-lite/tmp/build/covera\</tspan>
<tspan x="10" y="5610">ge.badge.svg</tspan>

<tspan x="10" y="5626">istanbul - created coverage file /tmp/npmTestPublished/node_modules/istanbul-lite/tmp/build/cove\</tspan>
<tspan x="10" y="5642">rage.html/index.html</tspan>

<tspan x="10" y="5658"></tspan>

<tspan x="10" y="5674">-------------------------------------------------------</tspan>

<tspan x="10" y="5690">| test-report - npmTestPublished - browser - / - Mozilla/5.0 (X11; Linux x86_64) AppleWebKit/537\</tspan>
<tspan x="10" y="5706">.36 (KHTML, like Gecko) HeadlessChrome/83.0.4103.97 Safari/537.36 - 2020-06-09T14:13:32.538Z</tspan>

<tspan x="10" y="5722">|     330 ms            0 failed        6 passed      |</tspan>

<tspan x="10" y="5738">-------------------------------------------------------</tspan>

<tspan x="10" y="5754">| test-report - npmTestPublished - node - linux v14.4.0 - 2020-06-09T14:13:27.787Z</tspan>

<tspan x="10" y="5770">|    7230 ms            0 failed       12 passed      |</tspan>

<tspan x="10" y="5786">-------------------------------------------------------</tspan>

<tspan x="10" y="5802"></tspan>

<tspan x="10" y="5818">wrote file - test-report - /tmp/npmTestPublished/node_modules/istanbul-lite/tmp/build/test-repor\</tspan>
<tspan x="10" y="5834">t.html</tspan>

<tspan x="10" y="5850">wrote file - test-report - /tmp/npmTestPublished/node_modules/istanbul-lite/tmp/build/build.badg\</tspan>
<tspan x="10" y="5866">e.svg</tspan>

<tspan x="10" y="5882">wrote file - test-report - /tmp/npmTestPublished/node_modules/istanbul-lite/tmp/build/test-repor\</tspan>
<tspan x="10" y="5898">t.badge.svg</tspan>

<tspan x="10" y="5914"></tspan>

<tspan x="10" y="5930">npmTestPublished - 0 failed tests</tspan>

<tspan x="10" y="5946"></tspan>

<tspan x="10" y="5962"></tspan>

<tspan x="10" y="5978">\x1b[35m[MODE_BUILD=npmTestPublished]\x1b[0m - 2020-06-09T14:13:37.930Z - EXIT_CODE - 0</tspan>

</text>
</svg>
